<svg xmlns="http://www.w3.org/2000/svg" viewBox="0 0 231 231"><path d="M33.83,33.83a115.5,115.5,0,1,1,0,163.34,115.49,115.49,0,0,1,0-163.34Z" style="fill:#ffe926;"/><path d="m115.5 51.75a63.75 63.75 0 0 0-10.5 126.63v14.09a115.5 115.5 0 0 0-53.729 19.027 115.5 115.5 0 0 0 128.46 0 115.5 115.5 0 0 0-53.729-19.029v-14.084a63.75 63.75 0 0 0 53.25-62.881 63.75 63.75 0 0 0-63.65-63.75 63.75 63.75 0 0 0-0.09961 0z" style="fill:#ffce94;"/><path d="m141.89 195a114.79 114.79 0 0 1 38 16.5 115.55 115.55 0 0 1-128.47 0 114.79 114.79 0 0 1 38-16.5l15.75 15.75h21z" style="fill:#0D204A;"/><path d="m146.4 196.14-17.4 17.44-1.17 1.17h-24.34l-1.18-1.17-17.43-17.44c1.49-0.41 3-0.79 4.51-1.14l4.67-1 12.74 12.74h17.69l12.73-12.74 4.67 1c1.52 0.35 3 0.73 4.51 1.14z" style="fill:#00ffdf;"/><path d="m109.99 15.57c-13.46 3.6301-19.789 11.95-24.069 24.08-6.9996-7-8.7307-10.82-7.5606-21.43a41 41 0 0 0-9.2698 24.988c0.0366 7.6776 5.6462 13.939 12.697 15.297-13.315 5.8106-15.258 22.033-14.045 33.524 5.7687-11.861 14.254-20.981 27.258-22.951-0.43017 6.6-2.5099 10.22-7.29 17.66 18.29-2.8601 25.119-7.8199 37.15-18.24 0.46001 0 1.0001 0.089 1.4606 0.12058-0.33023 3.5601-1.0906 6.5598-5.0004 12.46 9.5298-1.32 14.721-5.8006 17.539-11.671 8.8862 0.95314 15.836 6.785 21.26 14.818 1.928-15.211-4.4766-26.6-19.807-34.036 1.4167-2.6974 8.0143-11.925 17.661-15.721-1.424-0.28569-2.8883-0.49486-4.4033-0.61125-5.71-0.41992-13.62-0.99982-24.89 4.1703 2.8501-8.5101 10.21-11 18.05-13.12-15.131-1.2501-28.61-2.5898-40.53 8.1801-1.8997-6.21-0.18055-12.54 3.7889-17.52z" style="fill:#fff539;"/><path d="m172.63 69.954c1.2292 14.064 0.93841 29.96 0.34635 45.169 1.7887 6.796 3.0379 13.235 3.8842 18.388l0.13973-0.011c1.0001 6.56 2.3597 13.18 3.2698 19.73 2.0002-6.5699 2.5303-18.25 3.2405-25.43 1.2597-13 1.8296-29.311-0.43017-41.931-0.85041-4.72-2.0007-7.6896-2.0007-8.4796 4.6205 3.5601 8.6606 9.2204 13.001 14.15-0.6751-3.4318-1.347-6.6004-2.0567-9.5273-4.047-5.7183-13.726-12.154-19.393-12.06z" style="fill:none;"/><path d="m157.97 34.471c-10.339 2.7579-17.715 13.543-19.132 16.24 15.33 7.4361 20.783 17.96 21.278 33.517 5.9534 8.8179 10.066 20.289 12.857 30.895 0.87636-13.178 1.8186-27.726 0.26566-44.28 2.5698 0.44857 9.1372 1.3934 18.781 11.17-2.1158-8.7321-4.5671-15.31-8.4539-20.283-4.5598-5.8401-10.999-10.431-23.809-13 9.6502-3.34 16.27-0.76993 25.5 2.1301-8.1388-7.4315-16.474-14.219-27.287-16.389z" style="fill:#fff539;"/><path d="m61.473 73.354c-7.256-0.77501-13.024 2.3746-16.262 5.3879 0.73789-0.45409 1.3868-0.74208 1.8489-0.74208 0 0-1.5198 10.359-1.6197 11.519-1.56 19.73 0.99957 43.401 6.37 62.471 1.3099 4.6899 1.1895 3.0893 1.8898-0.9107 1.7526-10.061 3.3891-24.703 6.9739-38.864-5.068-17.627-4.2508-32.403 0.79937-38.861z" style="fill:none;"/><path d="m69.09 43.21c-0.0253 1.0803-8e-3 2.1612 0.0523 3.2402-3.8402 0-12.46 0.71984-16 2.1598-4.4504 1.8001-8.48 5.4801-11.67 11.83 7.2999-3.94 11.899-3.8502 16.66-1.8102-10.39 3.45-19.52 11.37-20.32 26.9 1.1456-1.5053 4.6079-4.9789 7.1393-6.6285 0.09-0.0587 0.17427-0.10556 0.26167-0.15946 3.7141-2.3211 9.0494-5.1247 15.181-4.9553-5.0501 6.4577-6.6824 20.434 0.28207 38.428 1.7866-7.0567 4.0574-13.994 7.0681-20.184-1e-3 -11.664 2.0764-27.774 15.391-33.585-7.0508-2.1538-12.709-7.991-14.043-15.236z" style="fill:#fff539;"/><path d="m86.851 100.39a4.94 4.94 0 1 0 4.9297 5 5 5 0 0 0-4.9297-5zm57.221 0a4.94 4.94 0 1 0 4.9394 4.9394 4.94 4.94 0 0 0-4.9394-4.9394z" style="fill:#000;"/><path d="m86.207 89.365c-25.504 0-21.503 6.8561-21.035 19.596 0.80177 18.121 17.763 16.514 21.201 16.639 14.758-0.041 20.518-8.227 22.951-22.932 1.8166-10.731-9.251-13.174-23.117-13.303zm58.598 0c-13.866 0.1284-24.936 2.5717-23.119 13.303 2.4332 14.705 8.1936 22.891 22.951 22.932 3.4383-0.125 20.399 1.4828 21.201-16.639 0-18.965-0.47958-19.596-21.033-19.596z" style="fill:#ff23fa;opacity:0.39;"/><path d="m169.87 90.255a0.51 0.51 0 0 0-0.43991-0.52 167.64 167.64 0 0 0-22.6-1.6801c-12 0-27.47 3.7601-30.17 3.7601h-2.4c-1.2499 0-5.29-0.80996-10.45-1.6801a124.35 124.35 0 0 0-19.72-2.08 166.18 166.18 0 0 0-19.31 1.24c-1.56 0.17999-2.69 0.35009-3.2899 0.44009a0.51 0.51 0 0 0-0.44007 0.52l-0.091 6.4501a0.57 0.57 0 0 0 0.33012 0.52l0.73994 0.23992c1.08 0.41992 1.0001 19.85 6.78 24.71 3.4401 2.8599 6.51 4.4899 19.42 4.4899 7.4699 0 12.17-1.9999 16.63-8 3.21-4.32 6.0999-14.55 6.0999-14.55 0.82006-4.07 3.7702-4.52 4.43-4.5801h0.12068c0.11078 0 3.66 0.0593 4.57 4.5801 0 0 2.8599 10.22 6.0699 14.54 4.4601 5.9999 9.1601 8 16.63 8 12.91 0 16-1.63 19.42-4.4901 5.7898-4.86 5.6998-24.29 6.78-24.71l0.73994-0.23993a0.57 0.57 0 0 0 0.32996-0.52l-0.12068-6.4501zm-65 23c-1.9101 4.5-6.8 10.29-13.7 10.64-20.7 0.99985-21.65-4.7401-23-9.3201a31.45 31.45 0 0 1-1.2099-13.18c0.53997-4.5799 1.7-7.2699 3.7801-8.6201a9.3 9.3 0 0 1 4.3499-1.51 85.07 85.07 0 0 1 11.4-0.52 59.23 59.23 0 0 1 9.2099 0.69999c7.37 1.2 12.35 3.7001 12.35 6.1601a46.12 46.12 0 0 1-3.23 15.64zm58 1.3201c-1.34 4.5799-2.29 10.36-23 9.3201-6.91-0.3501-11.81-6.1401-13.71-10.64a46.35 46.35 0 0 1-3.22-15.64c0-3.39 9.43-6.8599 21.56-6.8599 12.13 0 14 0.89996 15.75 1.9999 2.08 1.3502 3.2398 4 3.77 8.6201a31.23 31.23 0 0 1-1.1601 13.17z" style="fill:#000;"/><path d="m115.5 153.93a14 14 0 0 1-10.5-4.69 3.4209 3.4209 0 0 1 5-4.67l0.08 0.08 0.08 0.09a7.35 7.35 0 0 0 10.39 0.37l0.37-0.37a3.4206 3.4206 0 1 1 5.23 4.41l-0.08 0.09a14 14 0 0 1-10.53 4.69z" /><path d="m115.27 127.32c-7.6627-0.03-15.251 1.4419-20.646 5.1465-7.62 5.33-9.9053 11.512-14.127 18.109-3.4379 5.2447-9.326 10.024-13.467 6.334 25.425 29.755 71.409 29.786 96.875 0.0664-6.8104 3.9305-11.545-2.47-13.508-6.4004-10.697-17.605-14.115-22.656-35.127-23.256zm-0.26758 8.3984c7.457 0.0802 14.986 1.2966 17.146 5.9522 2.5765 11.319-7.5878 17.454-16.681 17.515-6.09-0.05-12.2-2.3802-15.26-7.7402-6.36-11.16 3.6349-15.607 14.795-15.727z" style="fill:#000;"/></svg>