<svg xmlns="http://www.w3.org/2000/svg" viewBox="0 0 231 231"><path d="M33.83,33.83a115.5,115.5,0,1,1,0,163.34,115.49,115.49,0,0,1,0-163.34Z" style="fill:#4a3f73;"/><path d="m115.5 51.75a63.75 63.75 0 0 0-10.5 126.63v14.09a115.5 115.5 0 0 0-53.729 19.027 115.5 115.5 0 0 0 128.46 0 115.5 115.5 0 0 0-53.729-19.029v-14.084a63.75 63.75 0 0 0 53.25-62.881 63.75 63.75 0 0 0-63.65-63.75 63.75 63.75 0 0 0-0.09961 0z" style="fill:#755227;"/><path d="m115.5 231a115 115 0 0 0 64.23-19.5 114.79 114.79 0 0 0-38-16.5l-2.41-9a125.19 125.19 0 0 0-13.32-2.28v8.75q3.52 0.32 7 0.84l-17.5 17.48-17.5-17.48q3.45-0.52 7-0.84v-8.75a125.55 125.55 0 0 0-13.34 2.28l-2.41 9a114.79 114.79 0 0 0-38 16.5 114.94 114.94 0 0 0 64.25 19.5z" style="fill:#0D0046;"/><path d="m132.98 193.33-36.185 36.155-2.4-0.42 36.108-36.081z" style="fill:#ffce73;"/><path d="m41.835 75.131c-2.8674 12.582 1.2304 27.241 6.0238 39.031 0.25861 0.63658 0.51208 1.3075 0.79989 1.9683 0.71726 1.658 2.1184 3.9751 3.0038 3.9266 0.56895-0.0312 0.71637-1.5512 1.0228-3.1562 2.1988-19.097 8.8981-27.915 15.636-38.107 2.8783-4.0645 3.8616-7.2293 1.0644-9.9325-6.3236-3.5596-14.924-2.8574-21.367-0.67406-3.2312 1.4765-5.2427 3.4773-6.1842 6.9439zm125.65-8.5679c7.65-0.70616 19.714-0.1307 21.694 8.5679 1.455 6.4083 0.26915 17.747-1.0542 24.579-1.1961 5.3203-3.8066 14.231-7.8782 19.75-0.5565 0.44544-0.96888 0.13656-1.4159-1.1606-0.90692-3.0353-1.4298-7.8372-2.2556-10.727-3.4822-12.79-8.2195-21.875-14.429-29.94-5.5782-6.8415-4.2152-9.7207 5.3393-11.069z" style="fill:none;"/><path d="m112.27 73.826c-18.585-7.5217-34.987-14.797-48.939 5.018-4.9752 7.083-3.7876 8.8056-4.9217 0.0749-1.637-12.476-4.7505-34.174 1.9259-45.194 7.6822-12.7 19.323-13.128 31.039-5.3818 10.796 7.7784 24.277 14.647 38.015 12.219 12.732-2.2576 15.835-7.7464 15.707-19.912-0.0215-2.6-0.0963-5.2106-0.2033-7.7999 13.631 3.9267 24.609 14.776 26.513 29.049 0.88804 6.6336 0.26749 12.722-1.9259 19.013-5.9702 17.108-30.119 20.896-45.74 16.841-3.9588-1.0378-7.6822-2.4181-11.47-3.9267z" style="fill:#fdff00;"/><path d="m83.527 103.98v10h10v-10h-10zm53.945 0v10h10v-10h-10z" style="fill:none;"/><path d="m56.621 94.906v11.688h5.3418v6.4922h5.3418v6.1055h5.3223v6.2324h26.846v-6.2324h5.3047v-6.1055h5.1445v-6.0039h11.154v6.0039h5.1446v6.1055h5.3066v6.2324h26.846v-6.2324h5.3203v-6.1055h5.3438v-6.4922h5.3418v-11.688z" style="fill:#000;"/><path d="m67.387 100.65v5.9394h5.1992v-5.9394zm5.1992 5.9394v6.4922h5.4238v-6.4922zm5.4238 0h5.1992v-5.9394h-5.1992zm5.1992 0v6.4922h5.4258v-6.4922zm5.4258 6.4922v6.1055h5.1426v-6.1055zm-10.625 0v6.1055h5.1445v-6.1055zm48.281-12.432v5.9394h5.1992v-5.9394zm5.1992 5.9394v6.4922h5.4238v-6.4922zm5.4238 0h5.1992v-5.9394h-5.1992zm5.1992 0v6.4922h5.4258v-6.4922zm5.4258 6.4922v6.1055h5.1426v-6.1055zm-10.625 0v6.1055h5.1445v-6.1055z" style="fill:#fff;"/><path d="m115.5 153.93a14 14 0 0 1-10.5-4.69 3.4209 3.4209 0 0 1 5-4.67l0.08 0.08 0.08 0.09a7.35 7.35 0 0 0 10.39 0.37l0.37-0.37a3.4206 3.4206 0 1 1 5.23 4.41l-0.08 0.09a14 14 0 0 1-10.53 4.69z" /><path d="m115.27 127.32c-7.6627-0.03-15.251 1.4419-20.646 5.1465-7.62 5.33-9.9053 11.512-14.127 18.109-3.4379 5.2447-9.326 10.024-13.467 6.334 25.425 29.755 71.409 29.786 96.875 0.0664-6.8104 3.9305-11.545-2.47-13.508-6.4004-10.697-17.605-14.115-22.656-35.127-23.256zm-0.26758 8.3984c7.457 0.0802 14.986 1.2966 17.146 5.9522 2.5765 11.319-7.5878 17.454-16.681 17.515-6.09-0.05-12.2-2.3802-15.26-7.7402-6.36-11.16 3.6349-15.607 14.795-15.727z" style="fill:#4a3737;"/></svg>