<svg xmlns="http://www.w3.org/2000/svg" viewBox="0 0 231 231"><path d="M33.83,33.83a115.5,115.5,0,1,1,0,163.34,115.49,115.49,0,0,1,0-163.34Z" style="fill:#0079b1;"/><path d="m115.5 51.75a63.75 63.75 0 0 0-10.5 126.63v14.09a115.5 115.5 0 0 0-53.729 19.027 115.5 115.5 0 0 0 128.46 0 115.5 115.5 0 0 0-53.729-19.029v-14.084a63.75 63.75 0 0 0 53.25-62.881 63.75 63.75 0 0 0-63.65-63.75 63.75 63.75 0 0 0-0.09961 0z" style="fill:#b27e5b;"/><path d="m141.75 195c13.563 3.1499 26.439 8.7409 38 16.5-38.873 26.001-89.587 26.001-128.46 0 11.561-7.7591 24.437-13.35 38-16.5 8.4869 8.8011 26.21 25.619 26.21 25.619s17.603-16.972 26.25-25.619z" style="fill:#000;"/><path d="m109 230.81 1.6836-14.33h9.6328l1.6836 14.33c-2.16 0.12-4.33 0.19-6.51 0.19s-4.35-0.07-6.51-0.19z" style="fill:none;"/><path d="m124.17 210.6h-17.349v5.53a3.8828 3.29 0 0 0 3.8828 3.29h9.583a3.8828 3.29 0 0 0 3.8828-3.29z" style="fill:none;"/><path d="m140.57 190.36-25.066 20.245c5.9686 3.2455 11.597 7.0814 16.8 11.45 1.5989 1.3338 3.9762 1.1189 5.31-0.48 0.21005-0.25749 0.38802-0.53956 0.52999-0.84l10.826-23.805-4-6c-0.90256-1.351-2.7298-1.7137-4.08-0.81-0.11612 0.0786-0.22641 0.16549-0.33 0.26z" style="fill:none;"/><path d="m90.434 190.36 25.066 20.245c-5.9686 3.2455-11.597 7.0814-16.8 11.45-1.5989 1.3338-3.9762 1.1189-5.31-0.48-0.21005-0.25749-0.38802-0.53956-0.52999-0.84l-10.826-23.805 4-6c0.90256-1.351 2.7298-1.7137 4.08-0.81 0.11612 0.0786 0.22641 0.16549 0.33 0.26z" style="fill:none;"/><path d="m41.668 87.073c-9.2319-0.0231-11.63 6.5104 2.2676 17.66-14.015 1.1231-4.3662 16.457 4.875 24.66 4.0686 3.0199 6.4647 5.4657 5.5078 1.1348-1.2079-4.9178-1.8184-9.9634-1.8184-15.027 3.26e-4 -7.5692 1.2547-15.016 3.7883-22.183 0.57048-1.7876 1.0689-2.0306-0.37721-2.6839-5.5405-2.4478-10.375-3.5511-14.243-3.5608z" style="fill:none;"/><path d="m185.48 89.513c-2.4418-0.11189-5.4618 0.81187-9.5148 3.2121-1.314 0.81729-0.70075 1.995-0.32301 3.2653 3.194 10.982 3.8215 22.462 1.2538 33.628-0.31613 1.688-0.47649 3.569 2.6953 1.3516 7.7016-5.371 19.17-18.734 16.918-26.105-1.4251-3.9177-11.4-0.35546-11.4-0.35546s4.987-4.2755 5.3437-9.6191c0.20048-3.0057-1.5237-5.2189-4.9726-5.377z" style="fill:#792B74;"/><path d="m91.689 36.108c-3.7298-7.3864-9.5859-10.504-17.578-6.7891-9.5194 4.5907-15.629 18.444-13.416 29.232 0 0-8.5511-4.9878-18.17-3.5625-19.623 8.094-1.4102 29.869 10.817 37.342 2.075 1.297 2.5792 1.7432 3.4291-0.37685 2.6746-6.5374 6.1886-12.722 11.297-17.709 4.1039 8.7427 14.629 4.1809 20.006-0.14062 4.4873 9.6838 10.377 6.3535 15.377 3.4785 4.0764 7.8829 10.756 7.25 17.631 0.0625 4.875 4.5625 14.713 4.1867 15.555-3.426 8.4753 2.6244 14.012 10.437 22.962-1.4764 8.8552 6.8221 14.407 16.853 17.122 27.51 0.34 1.554 1.175 0.85565 2.2212 0.44315 10.255-4.286 22.842-15.749 15.705-23.975-3.5623-3.5623-13.539-2.1387-13.539-2.1387s6.77-7.1233 9.2637-18.168c2.4936-11.043-23.514-4.9883-23.514-4.9883s7.4818-5.6993 12.113-13.537c4.6314-7.8378-2.4943-11.756-11.045-11.043-8.5496 0.71204-17.1 7.4805-17.1 7.4805s3.3946-7.8055-3.5625-12.826c-9.5935-6.9234-23.869 6.4121-23.869 6.4121-4.2562-26.835-24.872-6.386-31.707 8.1953z" style="fill:#792B74;"/><path d="m161.73 86.016h-92.51c-3.37 0-6.0001 2.3998-6.0001 5.2999v28.45c0 3.0002 2.74 5.3001 6.0001 5.3001h32.36c7.0901 0 7.44-19.43 13.82-19.43s6.8801 19.44 13.83 19.44h32.36c3.37 0 5.9999-2.4 5.9999-5.3001v-28.46c0.14043-2.9001-2.6-5.2999-5.9-5.2999z" style="fill:#7fb5a2;"/><path d="m161.73 86.016h-92.51c-3.37 0-6.0001 2.3998-6.0001 5.2999v28.45l104.55-28.45c0-2.9001-2.74-5.2999-5.9999-5.2999z" style="fill:#d1eddf;"/><path d="m161.73 86.016h-92.51c-3.37 0-6.0001 2.3998-6.0001 5.2999v28.45c0 3.0002 2.74 5.3001 6.0001 5.3001h32.36c7.0901 0 7.44-19.43 13.82-19.43s6.8801 19.44 13.83 19.44h32.36c3.37 0 5.9999-2.4 5.9999-5.3001v-28.46c0.14043-2.9001-2.6-5.2999-5.9-5.2999z" style="fill:none;stroke-linecap:round;stroke-linejoin:round;stroke-width:4.0026px;stroke:#301e19;"/><path d="m115.5 153.93a14 14 0 0 1-10.5-4.69 3.4209 3.4209 0 0 1 5-4.67l0.08 0.08 0.08 0.09a7.35 7.35 0 0 0 10.39 0.37l0.37-0.37a3.4206 3.4206 0 1 1 5.23 4.41l-0.08 0.09a14 14 0 0 1-10.53 4.69z" /><path d="m115.27 127.32c-7.6627-0.03-15.251 1.4419-20.646 5.1465-7.62 5.33-9.9053 11.512-14.127 18.109-3.4379 5.2447-9.326 10.024-13.467 6.334 25.425 29.755 71.409 29.786 96.875 0.0664-6.8104 3.9305-11.545-2.47-13.508-6.4004-10.697-17.605-14.115-22.656-35.127-23.256zm-0.26758 8.3984c7.457 0.0802 14.986 1.2966 17.146 5.9522 2.5765 11.319-7.5878 17.454-16.681 17.515-6.09-0.05-12.2-2.3802-15.26-7.7402-6.36-11.16 3.6349-15.607 14.795-15.727z" style="fill:#3a484a;"/></svg>