<svg xmlns="http://www.w3.org/2000/svg" viewBox="0 0 231 231"><path d="M33.83,33.83a115.5,115.5,0,1,1,0,163.34,115.49,115.49,0,0,1,0-163.34Z" style="fill:#181284;"/><path d="m115.5 51.75a63.75 63.75 0 0 0-10.5 126.63v14.09a115.5 115.5 0 0 0-53.729 19.027 115.5 115.5 0 0 0 128.46 0 115.5 115.5 0 0 0-53.729-19.029v-14.084a63.75 63.75 0 0 0 53.25-62.881 63.75 63.75 0 0 0-63.65-63.75 63.75 63.75 0 0 0-0.09961 0z" style="fill:#fee3c5;"/><path d="m141.89 195a114.79 114.79 0 0 1 38 16.5 115.55 115.55 0 0 1-128.47 0 114.79 114.79 0 0 1 38-16.5l15.75 15.75h21z" style="fill:#571e57;"/><path d="m146.4 196.14-17.4 17.44-1.17 1.17h-24.34l-1.18-1.17-17.43-17.44c1.49-0.41 3-0.79 4.51-1.14l4.67-1 12.74 12.74h17.69l12.73-12.74 4.67 1c1.52 0.35 3 0.73 4.51 1.14z" style="fill:#ff0;"/><path d="m169.65 90.998c3.137 11.94 4.9371 36.484-3.4118 58.213l5.129 3.1164c10.044-15.199 14.959-39.163 13.943-61.33z" style="fill:none;"/><path d="m45.081 90.989c-0.88085 4.9304-0.87534 14.953-0.15027 21.75 2.1318 19.98 16.671 42.505 16.671 42.505l5.7352-4.4331s-13.244-31.348-6.0571-52.751c0.52108-1.5517 0.95592-2.916 1.3462-4.1835z" style="fill:none;"/><path d="m117 3.4883c-8.2136-0.19887-19.13 7.933-18.494 9.3516 1.6214 3.6186 11.176 22.55 11.889 23.963h10.148c2.6022-6.3102 11.32-26.531 11.32-26.531s-4.1382-4.138-12.416-6.4375c-0.77605-0.21556-1.5976-0.32513-2.4473-0.3457z" style="fill:none;"/><path d="m115.95 4.5428c-3.1563 0-6.3123 0.57462-9.2165 1.715-5.8084 2.2817-10.532 6.808-12.779 12.245v-5e-3c-1.8166 4.397-2.0233 9.3441-0.58058 13.857 0.69352 2.1687 1.7693 4.2296 3.1533 6.0968h38.893c0.71032-0.95769 1.3441-1.9641 1.8787-3.0144 2.6811-5.2673 2.9296-11.542 0.67253-16.975-2.257-5.4337-6.9893-9.9522-12.802-12.224-2.9064-1.1335-6.0633-1.6987-9.2196-1.6956z" style="fill:none;"/><path d="m92.512 28.125c0.13387 1.4318 0.41877 2.8511 0.85962 4.2306 1.4429 4.5127 4.5278 8.5654 8.6411 11.353 4.1135 2.7873 9.2311 4.2913 14.336 4.2165 5.1052-0.0764 10.168-1.7333 14.181-4.6419 2.8754-2.0834 5.2132-4.7932 6.7665-7.8447 1.2005-2.3586 1.9085-4.9188 2.127-7.5156-15.037-2.6407-31.421-3.4671-46.912 0.20253z" style="fill:none;"/><path d="m34.426 90.63c14.714 4.0779 22.683 6.4085 45.254 7.4257 2.5318-18.185 4.6689-28.672 10.023-38.352 3.2025 13.403 3.8346 25.22 2.9106 42.253l11.172-0.23161c1.4706-11.886 3.8989-29.213 2.1636-42.021 10.416 12.631 11.373 23.624 13.077 39.726 30.174-0.76004 59.808-4.5121 77.845-10.128-10.76-38.608-41.475-55.66-80.38-56.104-38.182-0.45134-74.543 22.405-82.065 57.432z" style="fill:#ffc107;"/><line x1="85.29" x2="85.29" y1="98.73" y2="109.79" style="fill:none;stroke-linecap:round;stroke-linejoin:round;stroke-width:8.7999px;stroke:black;"/><path d="m108.28 72.16h62.18c9.19 0 13.32 1.21 14.71 8.52 3.61 18.95 2.2 33.49-0.44 43.75a65.07 65.07 0 0 1-5.89 14.78 73.52 73.52 0 0 1-7.06 10.26c-1.8 2.27-5.17 1.21-4.19-1.09 0.14-0.47 0.27-1 0.4-1.48a14.29 14.29 0 0 0 0.52-6.62 12.52 12.52 0 0 0-3.88-6.3c-4.17-3.9-12.81-8.71-32.53-13.66-6.4-1.6-10.69-2.24-11.76-2.79a7.08 7.08 0 0 1-3.85-6.31v-9c0-2.39 0.18-4.55-1.56-6.57s-4.16-2.13-6.65-2.14a6 6 0 0 1-6-6v-9.35a6 6 0 0 1 6-6z" style="fill:#008;opacity:0.67;"/><path d="m135.9 98.73v9.27m15.22-9.29v9.29" style="fill:none;stroke-linecap:round;stroke-linejoin:round;stroke-width:7.7998px;stroke:aqua;"/><path d="m115.5 153.93a14 14 0 0 1-10.5-4.69 3.4209 3.4209 0 0 1 5-4.67l0.08 0.08 0.08 0.09a7.35 7.35 0 0 0 10.39 0.37l0.37-0.37a3.4206 3.4206 0 1 1 5.23 4.41l-0.08 0.09a14 14 0 0 1-10.53 4.69z" /><path d="m115.27 127.32c-7.6627-0.03-15.251 1.4419-20.646 5.1465-7.62 5.33-9.9053 11.512-14.127 18.109-3.4379 5.2447-9.326 10.024-13.467 6.334 25.425 29.755 71.409 29.786 96.875 0.0664-6.8104 3.9305-11.545-2.47-13.508-6.4004-10.697-17.605-14.115-22.656-35.127-23.256zm-0.26758 8.3984c7.457 0.0802 14.986 1.2966 17.146 5.9522 2.5765 11.319-7.5878 17.454-16.681 17.515-6.09-0.05-12.2-2.3802-15.26-7.7402-6.36-11.16 3.6349-15.607 14.795-15.727z" style="fill:#4a3737;"/></svg>