<svg xmlns="http://www.w3.org/2000/svg" viewBox="0 0 231 231"><path d="M33.83,33.83a115.5,115.5,0,1,1,0,163.34,115.49,115.49,0,0,1,0-163.34Z" style="fill:#FFC107;"/><path d="m115.5 51.75a63.75 63.75 0 0 0-10.5 126.63v14.09a115.5 115.5 0 0 0-53.729 19.027 115.5 115.5 0 0 0 128.46 0 115.5 115.5 0 0 0-53.729-19.029v-14.084a63.75 63.75 0 0 0 53.25-62.881 63.75 63.75 0 0 0-63.65-63.75 63.75 63.75 0 0 0-0.09961 0z" style="fill:#ffce94;"/><path d="m141.89 195a114.79 114.79 0 0 1 38 16.5 115.55 115.55 0 0 1-128.47 0 114.79 114.79 0 0 1 38-16.5l15.75 15.75h21z" style="fill:#571e57;"/><path d="m146.4 196.14-17.4 17.44-1.17 1.17h-24.34l-1.18-1.17-17.43-17.44c1.49-0.41 3-0.79 4.51-1.14l4.67-1 12.74 12.74h17.69l12.73-12.74 4.67 1c1.52 0.35 3 0.73 4.51 1.14z" style="fill:#ff0;"/><path d="m124.22 13.61c-19.783 0-36.945 8.0887-39.695 24.106-15.332 0.23539-31.831 2.7712-41.663 15.782-6.0238 7.9604-7.0402 19.901-6.8476 31.724 0.46007 28.503 10.742 64.228-4.3012 89.714 16.584 5.7777 43.086 10.742 73.59 11.662v-8.6558c-1.851-0.35308-3.6592-0.78105-5.4353-1.2732-30.953-8.4632-50.672-36.635-47.259-68.669 1.5514-10.603 4.6221-19.665 10.025-27.69 5.3818-7.9925 13.267-15.717 23.892-21.41 0.40658 0.72757 1.9901 3.5843 2.4074 4.3012 7.5003 12.775 17.986 23.849 33.157 26.866 12.433 2.4609 23.849 3.4666 36.346 1.1555 4.2584-0.78106 10.667-2.3967 14.851-2.4181 14.861 33.404-1.0806 75.035-40.668 87.457-2.2255 0.70616-4.5258 1.316-6.8904 1.8189 0 2.707-0.0428 5.6493-0.0642 8.5274 23.603-0.72757 48.682-4.0444 72.874-11.234-18.521-32.152 0.81315-89.083-10.036-121.46-9.0731-26.973-38.85-40.315-64.282-40.305z" style="fill:#fdff00;"/><path d="m33.147 172.32c-2.6535 5.1143-6.088 9.9504-10.1 12.411 7.8427 10.453 17.387 19.516 28.257 26.781 16.038-10.731 35.629-17.055 54-18.606v-9.0089c-30.065-0.94155-56.108-5.8847-72.157-11.577zm164.06 0.55637c-23.731 7.0723-48.361 10.325-71.525 11.042-0.0321 3.1242-0.0535 6.2377-0.0107 9.0517 19.227 1.7226 37.908 7.8534 53.989 18.542 0.0107 0 0.0107 0 0.0214 0.0107 10.731-7.1686 20.179-16.081 27.958-26.374-4.2798-2.3967-7.832-6.9653-10.432-12.272z" style="fill:#fdff00;"/><path d="m50.02 46.5c-2.9297 1.9143-6.1313 3.8826-10.154 7.9805-14.091 14.359-16.145 27.701-6.1406 44.018 4.2049 6.8583 6.1414 13.706-0.24609 20.5-7.7143 8.1957-21.559 4.2912-21.537 16.061 0.0214 8.613 15.063 7.9178 22.531 13.984 3.7662 3.0707 5.0836 8.3992 2.0664 12.508-4.2156 5.7456-16.006 7.3715-22.629 8.9336 5.8811 10.843 13.45 20.638 22.355 29.033l0.0039 0.0234 0.0059-0.0137c2e-3 2e-3 0.0038 4e-3 0.0059 6e-3 0.0034-0.0112 0.0063-0.0219 0.0098-0.0332 14.775-12.218 20.268-20.965 49.461-28.434-17.404-10.258-30.68-27.122-24.143-35.34 4.4123-5.5444 5.6612-7.8633 6.4062-12.078 2.3582-13.339-10.208-22.335-9.2363-32.715 1.9432-8.2346 11.379-11.173 16.947-15.115 5.4577-3.9082 9.8014-8.7695 10.799-16.918-13.558-4.8896-17.609-5.8617-36.506-12.4zm140.87 19.357c-3.4404-0.91243-23.311 122.43 4.4121 133.14 8.9661-8.5809 16.552-18.584 22.404-29.658 0-0.31029-25.133-3.9922-25.979-14.018-0.10699-1.1769 0.11822-1.4855 0.86718-2.502 6.6764-9.2122 30.716-11.416 29.646-23.496-0.27818-3.1563-4.1617-5.2334-6.7402-6.4531-12.155-5.767-32.942-9.6494-15.031-24.543 9.2122-7.3505 10.43-8.4323 0.59766-14.691-9.4583-6.0238-9.394-11.993-9.7578-16.326-0.0767-0.93035-0.22089-1.4003-0.41992-1.4531z" style="fill:none;"/><path d="m133.83 39.909c-11.33 1.393-9.5492 16.204-2e-3 16.643-4.5102 10.717 9.0165 16.181 14.441 8.3125 6.562 8.6765 18.596 0.94751 14.457-8.3125 11.718-1.5381 9.2769-16.099 0-16.643 4.503-10.867-9.4883-16.101-14.457-8.3301-6.8832-9.0411-18.509-0.47321-14.439 8.3301z" style="fill:none;"/><path d="m153.86 48.222c0-3.0528-2.5184-5.5648-5.5791-5.5648-3.0783 0-5.5793 2.512-5.5793 5.5648 0 3.0703 2.501 5.5648 5.5793 5.5648 3.0606 0 5.5791-2.4946 5.5791-5.5648z" style="fill:none;"/><path d="m86.851 100.39a4.94 4.94 0 1 0 4.9297 5 5 5 0 0 0-4.9297-5zm57.221 0a4.94 4.94 0 1 0 4.9394 4.9394 4.94 4.94 0 0 0-4.9394-4.9394z" style="fill:#000;"/><path d="m86.207 89.365c-25.504 0-21.503 6.8561-21.035 19.596 0.80177 18.121 17.763 16.514 21.201 16.639 14.758-0.041 20.518-8.227 22.951-22.932 1.8166-10.731-9.251-13.174-23.117-13.303zm58.598 0c-13.866 0.1284-24.936 2.5717-23.119 13.303 2.4332 14.705 8.1936 22.891 22.951 22.932 3.4383-0.125 20.399 1.4828 21.201-16.639 0-18.965-0.47958-19.596-21.033-19.596z" style="fill:#ff23fa;opacity:0.39;"/><path d="m169.87 90.255a0.51 0.51 0 0 0-0.43991-0.52 167.64 167.64 0 0 0-22.6-1.6801c-12 0-27.47 3.7601-30.17 3.7601h-2.4c-1.2499 0-5.29-0.80996-10.45-1.6801a124.35 124.35 0 0 0-19.72-2.08 166.18 166.18 0 0 0-19.31 1.24c-1.56 0.17999-2.69 0.35009-3.2899 0.44009a0.51 0.51 0 0 0-0.44007 0.52l-0.091 6.4501a0.57 0.57 0 0 0 0.33012 0.52l0.73994 0.23992c1.08 0.41992 1.0001 19.85 6.78 24.71 3.4401 2.8599 6.51 4.4899 19.42 4.4899 7.4699 0 12.17-1.9999 16.63-8 3.21-4.32 6.0999-14.55 6.0999-14.55 0.82006-4.07 3.7702-4.52 4.43-4.5801h0.12068c0.11078 0 3.66 0.0593 4.57 4.5801 0 0 2.8599 10.22 6.0699 14.54 4.4601 5.9999 9.1601 8 16.63 8 12.91 0 16-1.63 19.42-4.4901 5.7898-4.86 5.6998-24.29 6.78-24.71l0.73994-0.23993a0.57 0.57 0 0 0 0.32996-0.52l-0.12068-6.4501zm-65 23c-1.9101 4.5-6.8 10.29-13.7 10.64-20.7 0.99985-21.65-4.7401-23-9.3201a31.45 31.45 0 0 1-1.2099-13.18c0.53997-4.5799 1.7-7.2699 3.7801-8.6201a9.3 9.3 0 0 1 4.3499-1.51 85.07 85.07 0 0 1 11.4-0.52 59.23 59.23 0 0 1 9.2099 0.69999c7.37 1.2 12.35 3.7001 12.35 6.1601a46.12 46.12 0 0 1-3.23 15.64zm58 1.3201c-1.34 4.5799-2.29 10.36-23 9.3201-6.91-0.3501-11.81-6.1401-13.71-10.64a46.35 46.35 0 0 1-3.22-15.64c0-3.39 9.43-6.8599 21.56-6.8599 12.13 0 14 0.89996 15.75 1.9999 2.08 1.3502 3.2398 4 3.77 8.6201a31.23 31.23 0 0 1-1.1601 13.17z" style="fill:#000;"/><path d="m115.68 160.64c7.08 0 13.11-4.93 15.46-11.84a2.14 2.14 0 0 0-1.51-2.6101 2.3 2.3 0 0 0-0.73995-0.0593h-26.42a2.12 2.12 0 0 0-2.31 1.9099 1.85 1.85 0 0 0 0.0593 0.73995c2.3401 6.9301 8.3802 11.86 15.46 11.86z" style="fill:#7d0000;"/></svg>