<svg xmlns="http://www.w3.org/2000/svg" viewBox="0 0 231 231"><path d="M33.83,33.83a115.5,115.5,0,1,1,0,163.34,115.49,115.49,0,0,1,0-163.34Z" style="fill:#ff184e;"/><path d="m115.5 51.75a63.75 63.75 0 0 0-10.5 126.63v14.09a115.5 115.5 0 0 0-53.729 19.027 115.5 115.5 0 0 0 128.46 0 115.5 115.5 0 0 0-53.729-19.029v-14.084a63.75 63.75 0 0 0 53.25-62.881 63.75 63.75 0 0 0-63.65-63.75 63.75 63.75 0 0 0-0.09961 0z" style="fill:#ffce73;"/><path d="m141.75 194.98a114.79 114.78 0 0 1 38 16.498 115.53 115.52 0 0 1-128.46 0 114.79 114.78 0 0 1 38-16.498l15.71 15.748h21z" style="fill:#c7d4e2;"/><path d="m70 200.88v20.77c-2.22-0.95325-4.3999-1.9698-6.5399-3.0496h-0.10088v-14.621c2.17-1.1 4.39-2.1399 6.64-3.0996z" style="fill:#435363;"/><path d="m161 200.88v20.77c1.9-0.80986 3.7702-1.6798 5.6201-2.5898l0.0989-0.0494 0.82005-0.40997h0.10088v-14.621c-2.17-1.1-4.39-2.1399-6.6402-3.0996z" style="fill:#435363;"/><polygon transform="matrix(1 0 0 .99987 4e-5 -3e-5)" points="97.32 201.93 115.5 223.72 133.68 201.93" style="fill:#141720;"/><path d="m111.2 230.88 1.31-16.908c0.32992 1.2798 5.6399 1.2798 5.9999 0l1.3201 16.938c-1.4301 0.0494-2.8601 0.089-4.3 0.089s-2.87 0-4.3-0.089z" style="fill:#141720;"/><path d="m115.49 201.79v0.0692l-7.55 12.678-7.0001 11.809-19.19-26.487c0.60999-0.42995 1.22-0.89985 1.8001-1.3899a52 51.993 0 0 0 10.07-10.619l21.79 13.878z" style="fill:#e7ecf2;"/><path d="m149.24 199.86-19.08 26.517-7.0001-11.809-7.57-12.678-0.0593-0.10086 21.94-13.998a52.21 52.203 0 0 0 10.08 10.699c0.58013 0.47009 1.1502 0.92002 1.7301 1.3399z" style="fill:#e7ecf2;"/><path d="m108.37 22.019c-6.2698-12.829-17.151-13.396-18.949 1.1769-11.448-9.4583-26.021-4.483-20.361 12.422-12.251-7.9282-24.919 1.7761-17.076 20.853-27.08 2.3646-22.715 24.726-10.111 31.435-9.9002 3.3566-10.701 9.4006-8.464 14.497 2.6574 4.7842 9.0126 6.4737 11.545 9.6519-6.624 0.59419-8.4112 5.6011-5.7404 9.5192 1.6896 2.4787 5.2756 4.2218 8.5971 5.5455 1.0485 0.40658 3.702 1.2732 3.9053 2.4181 0.18744 1.2156-6.7884 3.0055-5.7281 5.2612 0.60648 1.4227 1.7764 2.7151 2.6466 3.7156 1.2807 1.6595 10.755 8.0351 9.4583 4.2049-1.0271-3.7234-2.2148-7.4682-3.1456-11.192-1.1662-5.3069-1.7868-10.721-1.102-16.156 1.4223-5.455 5.069-4.4265 7.7837-8.3588 3.5264-5.7505 2.0296-11.614 2.124-13.575 0.107-1.7868 1.5407-1.1876 3.1884-1.4337 4.3868-0.64196 7.0081-2.1185 8.8377-6.2698 0.77035-1.9259 0.62057-9.7578 0.52426-11.78 0.36378-4.6328 4.1835 0 6.548 0.64196 3.2633 0.88805 6.8797 0.21399 9.0731-2.5037 1.7547-2.3753 2.0864-2.8888 4.6114-0.80245 2.6856 2.2148 4.0979 3.1349 7.6929 3.274 5.5637 0.20329 8.7735-6.2698 11.32-5.6386 3.5201 0.87735 3.6057 5.4567 10.261 4.8682 2.386-0.20329 3.8304-0.86665 5.4032-2.6428 0.88805-0.99505 1.958-2.5037 3.4345-2.6214 1.4658-0.1177 2.3218 2.3646 3.0065 3.4452 1.1926 2.6755 4.0295 3.6513 6.2377 3.3168 1.958-0.17119 3.854-1.4115 5.4268-2.4707 0.99679-0.66102 1.8284-0.81128 1.9256 0.2071 0.29592 2.2271 0.0862 7.7025 0.1596 8.4821 0.10556 8.4609 5.37 10.569 13.223 10.333-0.31871 3.7464 0.0583 11.28 5.4353 14.562 3.9481 2.7604 6.6657 1.2732 6.7299 7.8534 7e-3 6.1914-0.43693 13.061-1.2946 18.189-0.69547 4.0444-1.2412 6.4838-2.5251 10.378-0.64196 1.9152-0.81315 1.9687 1.4123 1.0699 7.1472-3.1456 10.539-11.48 8.3562-18.842-0.43869-2.0436 0.84525-1.7226 2.8781-2.6106 9.5248-4.2363 8.1264-11.335-0.75967-14.273 11.988-3.0926 13.886-8.9002 6.6871-15.375 7.3077-5.9168 3.6378-16.177-2.8032-16.991 12.422-7.0937 5.7349-22.062-5.1036-18.499 4.1728-12.037-5.5637-26.203-21.121-16.894 6.9653-11.373 2.065-22.661-12.101-10.785-3.4559-18.382-15.14-16.584-23.902-5.018 0.09435-20.075-16.001-17.42-18.146-2.5892z" style="fill:#de3b00;"/><path d="m5.4353 80.502c7.4468 9.1373 15.632 8.8912 15.632 8.8912s-6.0772 3.7983-6.8369 9.8755c-0.75966 6.088 4.5579 9.6295 8.0994 10.646 3.5522 1.0058 7.0937-2.7925 7.0937-2.7925s-5.8312 10.646-1.5193 15.964c4.3012 5.3176 11.908 3.0386 11.908 3.0386s-5.3283 10.132 1.0057 14.187c5.8312 3.7234 18.542 7.6715 20.511 8.2706-6.0666-9.7472-9.576-21.249-9.576-33.575v-0.0428c0-35.201 28.546-63.747 63.747-63.747 35.212 0 63.758 28.546 63.758 63.747 0 12.476-3.5843 24.116-9.7899 33.949h0.53496s13.931-1.0057 16.21-9.3727c2.279-8.3562 0.75967-9.8756 0.75967-9.8756s10.635 2.0329 13.417-7.5966l2.7926-9.6295s10.132 0 10.892-7.083c0.75963-7.0937-7.0295-12.411-7.0295-12.411s11.459 0.82385 14.498-10.453c1.0164-3.7555 0.83456-8.2171 0.1391-12.497-17.665-41.161-58.569-69.995-106.18-69.995-30.632 0-60.034 12.187-81.679 33.831v0.0107c-13.171 13.171-22.833 29.22-28.386 46.66z" style="fill:none;"/><path d="m86.851 100.39a4.94 4.94 0 1 0 4.9297 5 5 5 0 0 0-4.9297-5zm57.221 0a4.94 4.94 0 1 0 4.9394 4.9394 4.94 4.94 0 0 0-4.9394-4.9394z" style="fill:#000;"/><path d="m86.207 89.365c-25.504 0-21.503 6.8561-21.035 19.596 0.80177 18.121 17.763 16.514 21.201 16.639 14.758-0.041 20.518-8.227 22.951-22.932 1.8166-10.731-9.251-13.174-23.117-13.303zm58.598 0c-13.866 0.1284-24.936 2.5717-23.119 13.303 2.4332 14.705 8.1936 22.891 22.951 22.932 3.4383-0.125 20.399 1.4828 21.201-16.639 0-18.965-0.47958-19.596-21.033-19.596z" style="fill:none;"/><path d="m169.87 90.255a0.51 0.51 0 0 0-0.43991-0.52 167.64 167.64 0 0 0-22.6-1.6801c-12 0-27.47 3.7601-30.17 3.7601h-2.4c-1.2499 0-5.29-0.80996-10.45-1.6801a124.35 124.35 0 0 0-19.72-2.08 166.18 166.18 0 0 0-19.31 1.24c-1.56 0.17999-2.69 0.35009-3.2899 0.44009a0.51 0.51 0 0 0-0.44007 0.52l-0.091 6.4501a0.57 0.57 0 0 0 0.33012 0.52l0.73994 0.23992c1.08 0.41992 1.0001 19.85 6.78 24.71 3.4401 2.8599 6.51 4.4899 19.42 4.4899 7.4699 0 12.17-1.9999 16.63-8 3.21-4.32 6.0999-14.55 6.0999-14.55 0.82006-4.07 3.7702-4.52 4.43-4.5801h0.12068c0.11078 0 3.66 0.0593 4.57 4.5801 0 0 2.8599 10.22 6.0699 14.54 4.4601 5.9999 9.1601 8 16.63 8 12.91 0 16-1.63 19.42-4.4901 5.7898-4.86 5.6998-24.29 6.78-24.71l0.73994-0.23993a0.57 0.57 0 0 0 0.32996-0.52l-0.12068-6.4501zm-65 23c-1.9101 4.5-6.8 10.29-13.7 10.64-20.7 0.99985-21.65-4.7401-23-9.3201a31.45 31.45 0 0 1-1.2099-13.18c0.53997-4.5799 1.7-7.2699 3.7801-8.6201a9.3 9.3 0 0 1 4.3499-1.51 85.07 85.07 0 0 1 11.4-0.52 59.23 59.23 0 0 1 9.2099 0.69999c7.37 1.2 12.35 3.7001 12.35 6.1601a46.12 46.12 0 0 1-3.23 15.64zm58 1.3201c-1.34 4.5799-2.29 10.36-23 9.3201-6.91-0.3501-11.81-6.1401-13.71-10.64a46.35 46.35 0 0 1-3.22-15.64c0-3.39 9.43-6.8599 21.56-6.8599 12.13 0 14 0.89996 15.75 1.9999 2.08 1.3502 3.2398 4 3.77 8.6201a31.23 31.23 0 0 1-1.1601 13.17z" style="fill:#000;"/><path d="m100.19 152.09c2.8726 4.0616 9.8095 4.7232 15.119-0.45432 5.0656 4.5134 11.167 5.6898 15.495 0.31458" style="fill:none;stroke-linecap:round;stroke-linejoin:round;stroke-width:5.8949;stroke:#222;"/><path d="m109.67 135.53c-0.9758 0.0743-2.05 0.45327-3.1485 0.99414-4.3235 2.1399-7.3862 4.2557-10.639 7.1406-0.6251 0.5715 0.1168 0.77785 1.4238 0.87304 5.6967 0.0536 14.384 0.41404 15.098-0.875 1.9251-2.0788 1.7969-5.3303-0.1816-7.3008-0.701-0.67533-1.5769-0.90632-2.5527-0.83203zm11.656 0c-0.9758-0.0743-1.8517 0.1567-2.5527 0.83203-1.9785 1.9705-2.1067 5.222-0.1817 7.3008 0.7142 1.289 9.401 0.9286 15.098 0.875 1.307-0.0952 2.0489-0.30154 1.4238-0.87304-3.2524-2.8849-6.3151-5.0007-10.639-7.1406-1.0985-0.54087-2.1727-0.91985-3.1485-0.99414z" style="fill:#fff;"/></svg>